<svg width="66" height="66" viewBox="0 0 66 66" fill="none" xmlns="http://www.w3.org/2000/svg">
<rect width="66" height="66" rx="5.5" fill="#4D92BF"/>
<path fill-rule="evenodd" clip-rule="evenodd" d="M20.7381 31.4524C20.7381 29.3538 22.17 27.5452 23.5971 26.0066C25.2983 24.1726 26.3836 21.4142 26.3836 18.3073C26.3981 12.7489 22.944 8.25 18.6773 8.25C14.4396 8.25 10.9856 12.7489 11.0001 18.3073C11.0001 21.4142 12.0853 24.1726 13.7865 26.0066C15.2137 27.5452 16.6455 29.3538 16.6455 31.4524L16.6455 54.2408C16.6455 55.371 17.5617 56.2871 18.6918 56.2871C19.8219 56.2871 20.7381 55.371 20.7381 54.2408L20.7381 31.4524ZM30.7737 18.3643C30.7737 17.3347 31.6084 16.5 32.638 16.5H53.024C54.0537 16.5 54.8884 17.3347 54.8884 18.3643C54.8884 19.394 54.0537 20.2286 53.024 20.2286H32.638C31.6084 20.2286 30.7737 19.394 30.7737 18.3643ZM30.7737 33.2789C30.7737 32.2493 31.6084 31.4146 32.638 31.4146H53.024C54.0537 31.4146 54.8884 32.2493 54.8884 33.2789C54.8884 34.3085 54.0537 35.1432 53.024 35.1432H32.638C31.6084 35.1432 30.7737 34.3085 30.7737 33.2789ZM30.7737 48.1935C30.7737 47.1638 31.6084 46.3292 32.638 46.3292H53.024C54.0537 46.3292 54.8884 47.1638 54.8884 48.1935C54.8884 49.2231 54.0537 50.0578 53.024 50.0578H32.638C31.6084 50.0578 30.7737 49.2231 30.7737 48.1935Z" fill="white"/>
</svg>
